{
.appVersion = "3151";
.formatVersion = 3;
DisplayStrings = (
"SH/U.002 TTER",
RALLA,
"/_part.stroke BC",
"",
" ",
"/_part.stem.001 B",
BARITONE,
OUTPUT,
"",
"/_part.staff O",
"/_part.stem.002 DJEMBE",
"1",
T,
DUNGEON,
"/_part.stem.002 VIVA LAS VEGAS",
"/_part.stem.003 V",
RAYGUN,
"/_part.stem.001",
"/_part.stem.002",
A,
U,
Y,
PRAYERS,
"YEE LOONG TANG",
NATHAN,
"/N.001",
"",
NANCY,
P,
"",
O,
Q
);
axes = (
{
name = curvature;
tag = curv;
}
);
date = "2023-07-05 21:16:45 +0000";
familyName = Chiaroscuro;
featurePrefixes = (
{
automatic = 1;
code = "languagesystem DFLT dflt;
";
name = Languagesystems;
}
);
features = (
{
automatic = 1;
code = "feature ss01;
feature ss02;
feature ss03;
";
tag = aalt;
},
{
code = "sub O by O.001;
sub U by U.001;";
labels = (
{
language = dflt;
value = "";
}
);
tag = ss01;
},
{
code = "sub U by U.002;";
labels = (
{
language = dflt;
value = "";
}
);
tag = ss02;
},
{
code = "sub U by U.003;
";
labels = (
{
language = dflt;
value = "";
}
);
tag = ss03;
}
);
fontMaster = (
{
axesValues = (
0
);
customParameters = (
{
name = hheaAscender;
value = 900;
},
{
name = hheaDescender;
value = 0;
},
{
name = typoAscender;
value = 900;
},
{
name = typoDescender;
value = 0;
},
{
name = winAscent;
value = 900;
},
{
name = winDescent;
value = 0;
}
);
id = m01;
metricValues = (
{
pos = 900;
},
{
},
{
},
{
pos = 900;
}
);
name = Regular;
visible = 1;
}
);
glyphs = (
{
glyphname = C;
lastChange = "2023-07-21 22:39:22 +0000";
layers = (
{
hints = (
{
name = _corner.leftSerif;
origin = (0,8);
type = Corner;
}
);
layerId = m01;
shapes = (
{
closed = 1;
nodes = (
(10,0,l),
(125,0,l),
(125,6.5,l),
(75,6.5,o),
(29,33,o),
(47,182,c),
(153,900,l),
(147,900,l),
(0,0,l)
);
},
{
closed = 1;
nodes = (
(146,894,l),
(318.5,891.5,ls),
(478,889,o),
(495.5,775,o),
(495.5,650,c),
(500,650,l),
(500,900,l),
(147,900,l)
);
},
{
closed = 1;
nodes = (
(422,275,l),
(382,156,ls),
(335,16,o),
(331,10,o),
(177.5,6.5,cs),
(133,5.5,o),
(125,6.5,o),
(125,6.5,c),
(125,0,l),
(350,0,l),
(425,275,l)
);
},
{
closed = 0;
nodes = (
(499,900,l)
);
},
{
closed = 1;
nodes = (
(146,900,l),
(0,0,l),
(10,0.5,l),
(116,650,l),
(143,820.5,o),
(177.5,889.5,o),
(324.5,891.5,cs),
(500,894,l),
(499,900,l)
);
}
);
width = 500;
}
);
unicode = (67,99);
},
{
glyphname = D;
lastChange = "2023-07-23 10:08:04 +0000";
layers = (
{
hints = (
{
name = _corner.leftSerif;
origin = (2,8);
type = Corner;
}
);
layerId = m01;
shapes = (
{
closed = 1;
nodes = (
(642.5,531.5,l),
(650,531.5,l),
(650,750,l),
(450,900,l),
(114,900,l),
(115,892.5,l),
(311.5,887.5,ls),
(462.5,883.5,o),
(632.5,720,o),
(642.5,670,c)
);
},
{
closed = 1;
nodes = (
(149.5,0,l),
(262,0,l),
(650,375,l),
(650,531.5,l),
(642.5,531.5,l),
(642.5,450.5,l),
(626.5,381,o),
(587.5,338.5,o),
(428,190,cs),
(369.5,135.5,o),
(210,7.5,o),
(112.5,7.5,c),
(112.5,0,l)
);
},
{
closed = 1;
nodes = (
(10,0,l),
(112.5,0,l),
(112.5,7.5,l),
(62.5,7.5,o),
(31,32.5,o),
(59,180,c),
(206.25,855,l),
(200.25,855,l),
(0,0,l)
);
}
);
width = 650;
}
);
unicode = (68,100);
},
{
glyphname = E;
lastChange = "2023-07-21 22:39:22 +0000";
layers = (
{
hints = (
{
name = _corner.leftSerif;
origin = (0,8);
type = Corner;
}
);
layerId = m01;
shapes = (
{
closed = 1;
nodes = (
(67.5,0,l),
(182.5,0,l),
(182.5,6.5,l),
(132.5,6.5,o),
(86.5,33,o),
(104.5,182,c),
(207.5,880,l),
(201.5,880,l),
(57.5,0,l)
);
},
{
closed = 1;
nodes = (
(62,897,l),
(337,891.5,ls),
(449,889.5,o),
(482.5,868,o),
(517,826.5,cs),
(553,783,o),
(554.5,678.5,o),
(554.5,650,c),
(557.5,650,l),
(557.5,900,l),
(62,900,l)
);
},
{
closed = 1;
nodes = (
(153.5,530,l),
(276.5,530,o),
(341,525.5,o),
(367.5,479.5,cs),
(380.5,457,o),
(383,431,o),
(385.5,393.5,c),
(388.5,393.5,l),
(388.5,536.5,l),
(153.5,536.5,l)
);
},
{
closed = 1;
nodes = (
(479.5,275,l),
(439.5,156,ls),
(392.5,16,o),
(388.5,10,o),
(235,6.5,cs),
(190.5,5.5,o),
(182.5,6.5,o),
(182.5,6.5,c),
(182.5,0,l),
(407.5,0,l),
(482.5,275,l)
);
}
);
width = 570.5;
}
);
unicode = (69,101);
},
{
glyphname = F;
lastChange = "2023-07-21 22:39:22 +0000";
layers = (
{
hints = (
{
name = _corner.leftSerif;
origin = (0,8);
type = Corner;
}
);
layerId = m01;
shapes = (
{
closed = 1;
nodes = (
(-30,0,l),
(85,0,l),
(85,6.5,l),
(35,6.5,o),
(-11,33,o),
(7,182,c),
(110,880,l),
(104,880,l),
(-40,0,l)
);
},
{
closed = 1;
nodes = (
(-35.5,897,l),
(239.5,891.5,ls),
(351.5,889.5,o),
(385,868,o),
(419.5,826.5,cs),
(455.5,783,o),
(457,678.5,o),
(457,650,c),
(460,650,l),
(460,900,l),
(-35.5,900,l)
);
},
{
closed = 1;
nodes = (
(56,530,l),
(179,530,o),
(243.5,525.5,o),
(270,479.5,cs),
(283,457,o),
(285.5,431,o),
(288,393.5,c),
(291,393.5,l),
(291,536.5,l),
(56,536.5,l)
);
}
);
width = 460;
}
);
unicode = (70,102);
},
{
glyphname = G;
lastChange = "2023-07-21 22:39:22 +0000";
layers = (
{
hints = (
{
name = _corner.leftSerif;
origin = (2,8);
type = Corner;
}
);
layerId = m01;
shapes = (
{
closed = 1;
nodes = (
(298,897,l),
(488.5,891,o),
(474,870,o),
(486.5,748.5,cs),
(493,684.5,o),
(494.5,669,o),
(497,600,c),
(500,600,l),
(500,900,l),
(298,900,l)
);
},
{
closed = 1;
nodes = (
(150.5,179.5,l),
(486.5,375,o),
(480,442.5,o),
(496,76,c),
(500,76,l),
(500,414.5,l),
(150.5,182.5,l)
);
},
{
closed = 1;
nodes = (
(10,0,l),
(299.5,0.5,l),
(299.5,5.5,l),
(181,5.5,o),
(51.5,97.5,o),
(97,240.5,cs),
(300,880,l),
(294,880,l),
(0,0,l)
);
}
);
width = 500;
}
);
unicode = (71,103);
},
{
glyphname = H;
lastChange = "2023-07-21 22:39:22 +0000";
layers = (
{
hints = (
{
name = _corner.leftSerif;
origin = (1,8);
type = Corner;
},
{
name = _corner.rightSerif;
options = 1;
origin = (1,0);
type = Corner;
}
);
layerId = m01;
shapes = (
{
closed = 1;
nodes = (
(450,450,l),
(442.5,450,l),
(436,827,l),
(435.5,887,o),
(386,897,o),
(336,897,c),
(336,900,l),
(436,900,l),
(450,900,l)
);
},
{
closed = 1;
nodes = (
(20,0,l),
(150,900,l),
(148.5,900,l),
(33.5,900,l),
(33.5,897,l),
(83.5,897,o),
(131.5,887,o),
(126.5,827,c),
(0,0,l)
);
},
{
closed = 1;
nodes = (
(150,440,l),
(360,440,o),
(417,417,o),
(435,359,cs),
(442,336,o),
(444,134,o),
(446,75,c),
(450,75,l),
(450,450,l),
(150,450,l)
);
}
);
width = 450;
}
);
unicode = (72,104);
},
{
glyphname = I;
lastChange = "2023-07-21 22:39:22 +0000";
layers = (
{
hints = (
{
name = _corner.leftSerif;
origin = (0,13);
type = Corner;
},
{
name = _corner.rightSerif;
options = 1;
origin = (0,0);
type = Corner;
}
);
layerId = m01;
shapes = (
{
closed = 1;
nodes = (
(91,0,l),
(219.5,827,l),
(229,886.5,o),
(278.5,897,o),
(328.5,897,c),
(328.5,900,l),
(228.5,900,l),
(221,900,l),
(106,900,l),
(106,897,l),
(156,897,o),
(205,887,o),
(199.5,827,c),
(71,0,l)
);
}
);
width = 371;
}
);
unicode = (73,105);
},
{
glyphname = J;
lastChange = "2023-07-21 22:39:22 +0000";
layers = (
{
hints = (
{
name = _corner.leftSerif;
origin = (1,8);
type = Corner;
}
);
layerId = m01;
shapes = (
{
closed = 1;
nodes = (
(205,5,l),
(205,0,l),
(-25,0,l),
(-100,200,l),
(-96.5,202.5,l),
(-19,23.5,o),
(-3,5,o),
(150,5,c)
);
},
{
closed = 1;
nodes = (
(318.5,0,l),
(448.5,900,l),
(180,900,l),
(180,895,l),
(275,895,l),
(445,895,o),
(418.5,847.5,o),
(370.5,450,c),
(298.5,0,l)
);
}
);
width = 450;
}
);
unicode = (74,106);
},
{
glyphname = K;
lastChange = "2023-07-21 22:39:22 +0000";
layers = (
{
hints = (
{
name = _corner.rightSerif;
options = 1;
origin = (0,0);
type = Corner;
},
{
name = _corner.leftSerif;
origin = (0,8);
type = Corner;
}
);
layerId = m01;
shapes = (
{
closed = 1;
nodes = (
(20,0,l),
(150,900,l),
(147.5,900,l),
(32.5,900,l),
(32.5,897,l),
(82.5,897,o),
(131.5,887,o),
(126.5,827,c),
(0,0,l)
);
},
{
closed = 1;
nodes = (
(135,550.5,l),
(271,548,ls),
(421.5,545,o),
(425,471.5,o),
(430,411.5,cs),
(440,291.5,o),
(444,186,o),
(444,145,c),
(450,145,l),
(450,561.5,l),
(135,561.5,l)
);
},
{
closed = 1;
nodes = (
(155.5,561.5,l),
(187,618,o),
(332,803.5,o),
(450,900,c),
(375,900,l),
(135,561.5,l)
);
}
);
width = 450;
}
);
unicode = (75,107);
},
{
glyphname = L;
lastChange = "2023-07-21 22:39:22 +0000";
layers = (
{
layerId = m01;
shapes = (
{
closed = 1;
nodes = (
(353,5,o),
(375,17.5,o),
(446.5,152.5,c),
(450,150,l),
(375,0,l),
(125,0,l),
(125,5,l),
(200,5,l)
);
},
{
piece = {
stemAngle = -100;
};
ref = _part.stem.002;
}
);
width = 450;
}
);
unicode = (76,108);
},
{
glyphname = M;
lastChange = "2023-07-21 22:39:22 +0000";
layers = (
{
layerId = m01;
shapes = (
{
piece = {
stemAngle = -73.32682;
stemLength = 85;
};
ref = _part.stem.001;
},
{
closed = 1;
nodes = (
(182.5,900,l),
(182.5,897,l),
(344.5,897,o),
(342.5,810,o),
(344.5,750,cs),
(348.5,630,o),
(352,245,o),
(352,95,c),
(357.5,95,l),
(357.5,900,l)
);
},
{
closed = 1;
nodes = (
(527,900,l),
(527,897,l),
(689,897,o),
(687,810,o),
(689,750,cs),
(693,630,o),
(696.5,245,o),
(696.5,95,c),
(702,95,l),
(702,900,l)
);
},
{
closed = 1;
nodes = (
(397,100,l),
(641,855,l),
(635,855,l),
(344.5,0,l)
);
}
);
width = 750;
}
);
unicode = (77,109);
},
{
glyphname = N;
lastChange = "2023-07-23 07:05:22 +0000";
layers = (
{
layerId = m01;
shapes = (
{
closed = 1;
nodes = (
(69.5,900,l),
(69.5,897,l),
(231.5,897,o),
(250,843.5,o),
(287.5,791.5,cs),
(328.5,734.5,o),
(468.5,489,o),
(505,387.5,cs),
(538,296.5,o),
(544.5,262,o),
(544.5,73,c),
(550,73,l),
(550,400,l),
(245,900,l)
);
},
{
closed = 1;
nodes = (
(375,900,l),
(375,898.5,l),
(537,898.5,o),
(531,855,o),
(535,825,cs),
(543,765,o),
(544.5,501,o),
(544.5,450,c),
(550,450,l),
(550,900,l)
);
},
{
piece = {
stemAngle = -87.5;
stemLength = 80;
};
ref = _part.stem.001;
}
);
width = 575;
}
);
unicode = 78;
},
{
glyphname = O;
lastChange = "2023-07-23 10:15:00 +0000";
layers = (
{
hints = (
{
name = _corner.leftSerif;
origin = (0,1);
type = Corner;
},
{
name = _corner.rightSerif;
options = 1;
origin = (0,2);
type = Corner;
}
);
layerId = m01;
shapes = (
{
closed = 1;
nodes = (
(145,900,l),
(0,0,l),
(20,0,l),
(126,687.5,l),
(140.5,791,o),
(156,892,o),
(352,892,cs),
(487,892,o),
(540,809.5,o),
(540,750,cs),
(540,531.5,l),
(550,403,l),
(550,900,l)
);
},
{
closed = 1;
nodes = (
(125,0,l),
(237,0,l),
(550,349.5,l),
(550,531.5,l),
(540,531.5,l),
(540,383.5,o),
(522,346.5,o),
(392,195.5,cs),
(340,135.5,o),
(244.5,5,o),
(147,5,c),
(125,5,l)
);
}
);
width = 550;
}
);
unicode = (79,111);
},
{
glyphname = Q;
lastChange = "2023-07-23 10:12:40 +0000";
layers = (
{
hints = (
{
name = _corner.leftSerif;
origin = (0,1);
type = Corner;
},
{
name = _corner.rightSerif;
options = 1;
origin = (0,2);
type = Corner;
}
);
layerId = m01;
shapes = (
{
closed = 1;
nodes = (
(145,900,l),
(0,0,l),
(20,0,l),
(126,687.5,l),
(140.5,791,o),
(156,892,o),
(352,892,cs),
(487,892,o),
(526,809.5,o),
(530,750,cs),
(538,633,o),
(542,497,o),
(542,403,c),
(550,403,l),
(550,900,l)
);
},
{
closed = 1;
nodes = (
(260.5,389.5,l),
(362,12,o),
(350.5,20.5,o),
(285,10.5,cs),
(261.5,7,o),
(259,6,o),
(200,4,c),
(200,0,l),
(371.5,0,l),
(263.5,389.5,l)
);
}
);
width = 550;
}
);
unicode = (81,113);
},
{
glyphname = S;
lastChange = "2023-07-21 22:39:22 +0000";
layers = (
{
layerId = m01;
shapes = (
{
piece = {
staffLength = 0;
staffWidth = 0;
};
pos = (-49.5,0);
ref = _part.staff;
scale = (0.8325,1);
},
{
closed = 1;
nodes = (
(450,100,l),
(449.5,451,l),
(160,755,l),
(160,762,o),
(194,869.5,o),
(209,900,c),
(200,900,l),
(150,750,l),
(432,467.5,o),
(442.5,300,o),
(442.5,100,c)
);
},
{
piece = {
serifLength = 100;
stemAngle = -75;
stemLength = 0;
};
ref = _part.stem.001;
}
);
width = 450;
}
);
unicode = (83,115);
},
{
glyphname = T;
lastChange = "2023-07-21 22:39:22 +0000";
layers = (
{
layerId = m01;
shapes = (
{
piece = {
stemAngle = -90;
stemLength = 90;
stemWidth = 0;
};
pos = (87,0);
ref = _part.stem.001;
},
{
closed = 1;
nodes = (
(45.5,895,l),
(229.5,891.5,ls),
(341.5,889.5,o),
(375,868,o),
(409.5,826.5,cs),
(445.5,783,o),
(446,678.5,o),
(446,650,c),
(450,650,l),
(450,900,l),
(45.5,900,l)
);
}
);
width = 450;
}
);
unicode = (84,116);
},
{
glyphname = U;
lastChange = "2023-07-21 22:39:22 +0000";
layers = (
{
hints = (
{
name = _corner.leftSerif;
origin = (1,17);
type = Corner;
},
{
name = _corner.rightSerif;
options = 1;
origin = (1,16);
scale = (1,0.75);
type = Corner;
}
);
layerId = m01;
shapes = (
{
closed = 1;
nodes = (
(562.5,531.5,l),
(575,531.5,l),
(575,759.5,l),
(575,900,l),
(425,900,l),
(425,894,l),
(475,892,ls),
(546.5,889,o),
(555.5,817.5,o),
(558,760,c)
);
},
{
closed = 1;
nodes = (
(149.5,0,l),
(262,0,l),
(575,349.5,l),
(575,531.5,l),
(562.5,531.5,l),
(562.5,383.5,o),
(547,346.5,o),
(417,195.5,cs),
(365,135.5,o),
(269.5,27.5,o),
(172,27.5,c),
(159.5,27.5,l),
(126.5,27.5,o),
(52,32,o),
(87,177.5,c),
(226,900,l),
(220,900,l),
(36,0,l)
);
}
);
width = 575;
}
);
unicode = (85,117);
},
{
glyphname = V;
lastChange = "2023-07-21 22:39:22 +0000";
layers = (
{
hints = (
{
name = _corner.rightSerif;
options = 1;
origin = (1,2);
type = Corner;
}
);
layerId = m01;
shapes = (
{
piece = {
stemAngle = -50;
stemThickness = 0;
topSerifLength = 100;
topSerifWidth = 0;
};
ref = _part.stem.003;
},
{
closed = 1;
nodes = (
(129.5,0,l),
(700,900,l),
(687.5,900,l),
(125,20,l),
(61,50,o),
(39,78.5,o),
(71,224,c),
(20,0,l)
);
}
);
width = 650;
}
);
unicode = (86,118);
},
{
glyphname = W;
lastChange = "2023-07-21 22:39:22 +0000";
layers = (
{
hints = (
{
name = _corner.rightSerif;
options = 1;
origin = (1,2);
type = Corner;
},
{
name = _corner.rightSerif;
options = 1;
origin = (2,2);
type = Corner;
}
);
layerId = m01;
shapes = (
{
piece = {
stemAngle = -50;
stemThickness = 0;
topSerifLength = 100;
topSerifWidth = 0;
};
ref = _part.stem.003;
},
{
closed = 1;
nodes = (
(129.5,0,l),
(700,900,l),
(687.5,900,l),
(125,20,l),
(61,50,o),
(39,78.5,o),
(71,224,c),
(20,0,l)
);
},
{
closed = 1;
nodes = (
(479.5,0,l),
(1050,900,l),
(1037.5,900,l),
(475,20,l),
(396,20,o),
(362.5,20,o),
(362.5,184.5,c),
(362.5,250,l),
(350,250,l),
(350,0,l)
);
}
);
width = 900;
}
);
unicode = (87,119);
},
{
glyphname = X;
lastChange = "2023-07-21 22:39:22 +0000";
layers = (
{
layerId = m01;
shapes = (
{
piece = {
stemAngle = -25;
stemLength = 25;
};
ref = _part.stem.001;
},
{
closed = 1;
nodes = (
(487.5,675,l),
(575,798.5,l),
(575,900,l),
(382.5,900,l),
(382.5,895,l),
(430,895,o),
(518,891.5,o),
(540,850,cs),
(567,799,o),
(525,744,o),
(481.5,675,c)
);
},
{
closed = 1;
nodes = (
(375.5,592,l),
(275,900,l),
(125,900,l),
(125,894,l),
(192.5,891.5,ls),
(253,889.5,o),
(287,809,o),
(312,750,c),
(370,586.5,l)
);
},
{
closed = 1;
nodes = (
(397.5,502.5,l),
(557.5,30,l),
(565,30,l),
(404.5,511.5,l)
);
}
);
width = 575;
}
);
unicode = (88,120);
},
{
glyphname = Y;
lastChange = "2023-07-22 02:45:08 +0000";
layers = (
{
hints = (
{
name = _corner.rightSerif;
options = 1;
origin = (0,0);
scale = (1,0.65);
type = Corner;
},
{
name = _corner.leftSerif;
origin = (0,3);
scale = (3,2);
type = Corner;
}
);
layerId = m01;
shapes = (
{
closed = 1;
nodes = (
(101,0,l),
(494,345.5,l),
(490,345.5,l),
(81,0,l)
);
},
{
closed = 1;
nodes = (
(267.5,240,l),
(500,390,l),
(500,900,l),
(307.5,900,l),
(307.5,895,l),
(355,895,o),
(444,890.5,o),
(465,850,cs),
(494,794.5,o),
(491.5,487.5,o),
(465,420,cs),
(441.5,360.5,o),
(321,289.5,o),
(252.5,240,c)
);
},
{
closed = 1;
nodes = (
(265,240,l),
(272.5,248.5,l),
(190,248.5,o),
(98.5,252.5,o),
(110,317.5,c),
(195,900,l),
(85,900,l),
(85,895,l),
(106.5,895,ls),
(144,895,o),
(178,850,o),
(165,750,c),
(85,240,l)
);
}
);
width = 450;
}
);
unicode = (89,121);
},
{
glyphname = Z;
lastChange = "2023-07-21 22:39:22 +0000";
layers = (
{
layerId = m01;
shapes = (
{
piece = {
serifLength = 400;
stemAngle = 0;
stemLength = 0;
};
ref = _part.stem.001;
},
{
closed = 1;
nodes = (
(450,680,l),
(600,900,l),
(150,900,l),
(70,700,l),
(75,700,l),
(100,756.5,l),
(149,866.5,o),
(169,885,o),
(276,885,cs),
(351,885,o),
(491,891,o),
(519.5,849.5,c),
(541,815.5,o),
(513.5,787.5,o),
(445,680,c)
);
}
);
width = 600;
}
);
unicode = (90,122);
},
{
glyphname = D.001;
layers = (
{
hints = (
{
name = _corner.leftSerif;
origin = (2,8);
type = Corner;
}
);
layerId = m01;
shapes = (
{
closed = 1;
nodes = (
(587.5,531.5,l),
(600,531.5,l),
(600,712.5,l),
(400,900,l),
(114,900,l),
(115,890,l),
(300,890,ls),
(490.5,890,o),
(587.5,645,o),
(587.5,567.5,c)
);
},
{
closed = 1;
nodes = (
(149.5,0,l),
(262,0,l),
(600,375,l),
(600,531.5,l),
(587.5,531.5,l),
(587.5,450,o),
(550.5,326.5,o),
(420,190,cs),
(366,134,o),
(210,7.5,o),
(112.5,7.5,c),
(112.5,0,l)
);
},
{
closed = 1;
nodes = (
(10,0,l),
(112.5,0,l),
(112.5,7.5,l),
(62.5,7.5,o),
(31,32.5,o),
(59,180,c),
(206.25,855,l),
(200.25,855,l),
(0,0,l)
);
}
);
width = 600;
}
);
},
{
glyphname = N.001;
layers = (
{
layerId = m01;
shapes = (
{
closed = 1;
nodes = (
(69.5,900,l),
(69.5,897,l),
(231.5,897,o),
(256.5,859.5,o),
(300,813.5,cs),
(437.5,667.5,o),
(518.5,581.5,o),
(555,480,cs),
(588,389,o),
(594.5,262,o),
(594.5,73,c),
(600,73,l),
(600,500,l),
(244.5,900,l)
);
},
{
closed = 1;
nodes = (
(425,900,l),
(425,898.5,l),
(587,898.5,o),
(583,855,o),
(587,825,cs),
(595,765,o),
(594.5,651,o),
(594.5,600,c),
(600,600,l),
(600,900,l)
);
},
{
piece = {
stemAngle = -87.5;
stemLength = 80;
};
ref = _part.stem.001;
}
);
width = 600;
}
);
},
{
glyphname = N.002;
layers = (
{
layerId = m01;
shapes = (
{
piece = {
stemAngle = 0;
stemLength = 100;
};
pos = (-113,0);
ref = _part.stem.001;
},
{
closed = 1;
nodes = (
(69.5,900,l),
(69.5,897,l),
(231.5,897,o),
(255,809.5,o),
(275,750,cs),
(317.5,623.5,o),
(318.5,621.5,o),
(482.5,73,c),
(488,73,l),
(244.5,900,l)
);
},
{
closed = 1;
nodes = (
(362,900,l),
(362,897,l),
(524,897,o),
(522,810,o),
(524,750,cs),
(528,630,o),
(531.5,245,o),
(531.5,95,c),
(537,95,l),
(537,900,l)
);
}
);
width = 537;
}
);
},
{
glyphname = N.004;
lastChange = "2023-07-23 07:01:43 +0000";
layers = (
{
layerId = m01;
shapes = (
{
closed = 1;
nodes = (
(69.5,900,l),
(69.5,897,l),
(231.5,897,o),
(258,840,o),
(300,791.5,cs),
(375,704.5,o),
(518.5,489,o),
(555,387.5,cs),
(588,296.5,o),
(594.5,262,o),
(594.5,73,c),
(600,73,l),
(600,400,l),
(245,900,l)
);
},
{
closed = 1;
nodes = (
(425,900,l),
(425,898.5,l),
(587,898.5,o),
(581,855,o),
(585,825,cs),
(593,765,o),
(594.5,501,o),
(594.5,450,c),
(600,450,l),
(600,900,l)
);
},
{
piece = {
stemAngle = -87.5;
stemLength = 80;
};
ref = _part.stem.001;
}
);
width = 600;
}
);
},
{
glyphname = O.001;
lastChange = "2023-07-21 22:39:22 +0000";
layers = (
{
hints = (
{
name = _corner.leftSerif;
origin = (0,7);
type = Corner;
}
);
layerId = m01;
shapes = (
{
closed = 1;
nodes = (
(500,0,l),
(500,12,l),
(190.5,12,o),
(52,32,o),
(87,177.5,c),
(218,861,l),
(212,861,l),
(36,0,l)
);
},
{
piece = {
staffAngle = 0;
staffLength = 87.5;
staffThickness = 0;
staffWidth = 100;
};
ref = _part.staff;
}
);
width = 625;
}
);
},
{
glyphname = O.002;
layers = (
{
hints = (
{
name = _corner.leftSerif;
origin = (0,7);
type = Corner;
}
);
layerId = m01;
shapes = (
{
closed = 1;
nodes = (
(500,0,l),
(500,12,l),
(190.5,12,o),
(62,32,o),
(87,177.5,c),
(218,861,l),
(212,861,l),
(36,0,l)
);
},
{
piece = {
staffAngle = -50;
staffLength = 87.5;
staffThickness = 0;
staffWidth = 100;
};
ref = _part.staff;
}
);
width = 625;
}
);
},
{
glyphname = Q.001;
layers = (
{
hints = (
{
name = _corner.leftSerif;
origin = (0,1);
type = Corner;
},
{
name = _corner.rightSerif;
options = 1;
origin = (0,2);
type = Corner;
}
);
layerId = m01;
shapes = (
{
closed = 1;
nodes = (
(145,900,l),
(0,0,l),
(20,0,l),
(157.5,894,l),
(352,892,ls),
(487,890.5,o),
(526,809.5,o),
(530,750,cs),
(538,633,o),
(542,497,o),
(542,403,c),
(550,403,l),
(550,900,l),
(145,900,l)
);
},
{
closed = 1;
nodes = (
(260.5,389.5,l),
(362,12,o),
(350.5,20.5,o),
(285,10.5,cs),
(261.5,7,o),
(259,6,o),
(200,4,c),
(200,0,l),
(371.5,0,l),
(263.5,389.5,l)
);
},
{
closed = 1;
nodes = (
(145,900,l),
(0,0,l),
(20,0,l),
(135,750,l),
(144,809.5,o),
(195,889,o),
(345,892,cs),
(445,894,l),
(445,900,l)
);
}
);
width = 550;
}
);
},
{
glyphname = U.001;
lastChange = "2023-07-18 09:18:34 +0000";
layers = (
{
hints = (
{
name = _corner.leftSerif;
origin = (0,12);
type = Corner;
}
);
layerId = m01;
shapes = (
{
closed = 1;
nodes = (
(225,0,l),
(225,5,l),
(163,5,o),
(33,32,o),
(68,177.5,c),
(237.5,900,l),
(241.5,900,l),
(87.5,777.5,l),
(94,769.5,l),
(133,800,o),
(225,875,o),
(197,766.5,cs),
(0,0,l)
);
},
{
closed = 1;
nodes = (
(542,125,o),
(400,5,o),
(250,5,cs),
(225,5,l),
(225,0,l),
(250,0,ls),
(382.5,0,o),
(500,50,o),
(550,100,c),
(550,900,l),
(400,800,l),
(400,788.5,l),
(450,823.5,ls),
(508.5,864.5,o),
(537,817.5,o),
(539.5,760,cs),
(542.5,657.5,o),
(541.5,452,o),
(542,300,c)
);
}
);
width = 550;
}
);
},
{
glyphname = U.002;
lastChange = "2023-07-19 21:43:16 +0000";
layers = (
{
hints = (
{
name = _corner.leftSerif;
origin = (0,18);
type = Corner;
},
{
name = _corner.rightSerif;
options = 1;
origin = (0,17);
scale = (1,0.75);
type = Corner;
}
);
layerId = m01;
shapes = (
{
closed = 1;
nodes = (
(541,0,o),
(552,493.5,o),
(552,622,c),
(550,900,l),
(400,900,l),
(400,894,l),
(450,892,ls),
(521.5,889,o),
(549,694.5,o),
(549,637,cs),
(549,507.5,o),
(518.5,36,o),
(170,36,c),
(108,36,o),
(33,32,o),
(68,177.5,c),
(237.5,900,l),
(231.5,900,l),
(0,0,l),
(150,0,l)
);
}
);
width = 550;
}
);
},
{
glyphname = U.003;
lastChange = "2023-07-21 22:39:22 +0000";
layers = (
{
hints = (
{
name = _corner.leftSerif;
origin = (0,7);
type = Corner;
},
{
name = _corner.rightSerif;
options = 1;
origin = (0,6);
scale = (1,0.75);
type = Corner;
}
);
layerId = m01;
shapes = (
{
closed = 1;
nodes = (
(225,0,l),
(225,5,l),
(163,5,o),
(33,32,o),
(68,177.5,c),
(237.5,900,l),
(231.5,900,l),
(0,0,l)
);
},
{
closed = 1;
nodes = (
(542,125,o),
(400,5,o),
(250,5,cs),
(225,5,l),
(225,0,l),
(250,0,ls),
(382.5,0,o),
(500,50,o),
(550,100,c),
(550,900,l),
(400,900,l),
(400,894,l),
(450,892,ls),
(521.5,889,o),
(537,817.5,o),
(539.5,760,cs),
(542.5,657.5,o),
(541.5,452,o),
(542,300,c)
);
}
);
width = 550;
}
);
},
{
glyphname = V.001;
lastChange = "2023-07-21 22:39:22 +0000";
layers = (
{
hints = (
{
name = _corner.rightSerif;
options = 1;
origin = (1,2);
type = Corner;
}
);
layerId = m01;
shapes = (
{
piece = {
stemAngle = -50;
stemThickness = 0;
topSerifLength = 100;
topSerifWidth = 0;
};
ref = _part.stem.003;
},
{
closed = 1;
nodes = (
(129.5,0,l),
(700,900,l),
(678.5,900,l),
(164.5,114,l),
(141.5,70.5,o),
(101,5,o),
(49.5,5,c),
(-14,5,l),
(-32.5,0,l)
);
}
);
width = 650;
}
);
},
{
glyphname = W.001;
lastChange = "2023-07-21 22:39:22 +0000";
layers = (
{
hints = (
{
name = _corner.rightSerif;
options = 1;
origin = (1,2);
type = Corner;
},
{
name = _corner.rightSerif;
options = 1;
origin = (2,2);
type = Corner;
}
);
layerId = m01;
shapes = (
{
piece = {
stemAngle = -50;
stemThickness = 0;
topSerifLength = 100;
topSerifWidth = 0;
};
ref = _part.stem.003;
},
{
closed = 1;
nodes = (
(129.5,0,l),
(700,900,l),
(687.5,900,l),
(125,20,l),
(61,50,o),
(39,78.5,o),
(71,224,c),
(20,0,l)
);
},
{
closed = 1;
nodes = (
(479.5,0,l),
(1050,900,l),
(1037.5,900,l),
(475,20,l),
(396,20,o),
(450,225,o),
(467.5,275,c),
(700,900,l),
(687.5,900,l),
(350,0,l)
);
}
);
width = 900;
}
);
},
{
glyphname = Y.001;
layers = (
{
hints = (
{
name = _corner.leftSerif;
origin = (0,3);
scale = (3,2);
type = Corner;
},
{
name = _corner.rightSerif;
options = 1;
origin = (0,0);
scale = (1,0.65);
type = Corner;
}
);
layerId = m01;
shapes = (
{
closed = 1;
nodes = (
(101,0,l),
(494,345.5,l),
(490,345.5,l),
(81,0,l)
);
},
{
closed = 1;
nodes = (
(267.5,240,l),
(500,390,l),
(500,900,l),
(307.5,900,l),
(307.5,895,l),
(355,895,o),
(444,890.5,o),
(465,850,cs),
(494,794.5,o),
(491.5,487.5,o),
(465,420,cs),
(441.5,360.5,o),
(321,289.5,o),
(252.5,240,c)
);
},
{
closed = 1;
nodes = (
(265,240,l),
(272.5,248.5,l),
(190,248.5,o),
(190,284,o),
(190,317.5,c),
(190,900,l),
(85,900,l),
(85,895,l),
(106.5,895,ls),
(144,895,o),
(188,850,o),
(175,750,c),
(175,240,l)
);
}
);
width = 450;
}
);
},
{
export = 0;
glyphname = _corner.leftSerif;
lastChange = "2023-07-13 02:21:55 +0000";
layers = (
{
anchors = (
{
name = left;
pos = (0,40);
},
{
name = origin;
},
{
name = right;
pos = (17.5,0);
}
);
layerId = m01;
shapes = (
{
closed = 0;
nodes = (
(0,184,l),
(0,34,o),
(-50,5,o),
(-100,5,c),
(-100,0,l),
(0,0,l)
);
}
);
width = 600;
}
);
},
{
export = 0;
glyphname = _corner.rightSerif;
lastChange = "2023-07-16 23:53:49 +0000";
layers = (
{
layerId = m01;
shapes = (
{
closed = 0;
nodes = (
(-10,0,l),
(105,0,l),
(105,5,l),
(55,5,o),
(5,34,o),
(5,184,c)
);
}
);
width = 600;
}
);
},
{
export = 0;
glyphname = _part.bowl;
lastChange = "2023-07-18 08:13:01 +0000";
layers = (
{
hints = (
{
name = _corner.leftSerif;
origin = (0,7);
type = Corner;
}
);
layerId = m01;
partSelection = {
topWidth = 1;
bottomWidth = 1;
bottomAngle = 1;
topAngle = 2;
};
shapes = (
{
closed = 1;
nodes = (
(300,894,l),
(400,892.222,ls),
(550,889.5,o),
(573,809.5,o),
(579.5,750,cs),
(592.5,629,o),
(587,560,o),
(587,500,c),
(600,500,l),
(600,900,l),
(300,900,l)
);
}
);
width = 600;
},
{
associatedMasterId = m01;
hints = (
{
name = _corner.leftSerif;
origin = (0,7);
scale = (3,0.8);
type = Corner;
}
);
layerId = "6A960D11-B739-4E4E-A7EA-28E121AE5662";
name = "Bottom Widened";
partSelection = {
topWidth = 1;
bottomWidth = 2;
bottomAngle = 1;
topAngle = 2;
};
shapes = (
{
closed = 1;
nodes = (
(300,894,l),
(400,892.222,ls),
(550,891,o),
(587.5,809.5,o),
(587.5,750,cs),
(587.5,578,o),
(587.5,560,o),
(587.5,500,c),
(600,500,l),
(600,900,l),
(300,900,l)
);
}
);
width = 600;
},
{
associatedMasterId = m01;
hints = (
{
name = _corner.leftSerif;
origin = (0,7);
type = Corner;
}
);
layerId = "449C2E8E-F864-47EF-8C1B-D79FA4CFE819";
name = "Top Widened";
partSelection = {
topWidth = 2;
bottomWidth = 1;
bottomAngle = 1;
topAngle = 2;
};
shapes = (
{
closed = 1;
nodes = (
(150,894,l),
(400,892.222,ls),
(550,889.5,o),
(573,809.5,o),
(579.5,750,cs),
(592.5,629,o),
(587,560,o),
(587,500,c),
(600,500,l),
(600,900,l),
(150,900,l)
);
}
);
width = 600;
},
{
associatedMasterId = m01;
hints = (
{
name = _corner.leftSerif;
origin = (0,7);
scale = (2,1);
type = Corner;
}
);
layerId = "4296E79F-CA92-4C0C-9C21-9104BB32CE00";
name = "P Var";
partSelection = {
topWidth = 1;
bottomWidth = 1;
bottomAngle = 2;
topAngle = 2;
};
shapes = (
{
closed = 1;
nodes = (
(300,894,l),
(400,892.222,ls),
(550,889.5,o),
(573,809.5,o),
(579.5,750,cs),
(592.5,629,o),
(587,555,o),
(587,495,c),
(600,500,l),
(600,900,l),
(300,900,l)
);
}
);
width = 600;
},
{
associatedMasterId = m01;
hints = (
{
name = _corner.leftSerif;
origin = (0,7);
scale = (1.25,0.8);
type = Corner;
}
);
layerId = "350090A1-3020-4D94-93B9-B424075598D2";
name = "B Var";
partSelection = {
topWidth = 1;
bottomWidth = 1;
bottomAngle = 1;
topAngle = 1;
};
shapes = (
{
closed = 1;
nodes = (
(300,894,l),
(375,892,ls),
(475,889.5,o),
(508.5,809.5,o),
(525,750,cs),
(557.5,633,o),
(587,560,o),
(587,500,c),
(600,500,l),
(500,900,l),
(300,900,l)
);
}
);
width = 600;
}
);
partsSettings = (
{
bottomValue = 0;
name = topWidth;
topValue = 100;
},
{
bottomValue = 0;
name = bottomWidth;
topValue = 100;
},
{
bottomValue = 0;
name = bottomAngle;
topValue = 100;
},
{
bottomValue = -100;
name = topAngle;
topValue = 0;
}
);
},
{
export = 0;
glyphname = _part.staff;
lastChange = "2023-07-20 02:58:33 +0000";
layers = (
{
layerId = m01;
partSelection = {
staffLength = 2;
staffWidth = 1;
staffThickness = 1;
staffAngle = 2;
};
shapes = (
{
closed = 1;
nodes = (
(300,893.889,l),
(400,892.222,ls),
(550,889.5,o),
(578,810,o),
(580,750,cs),
(584,630,o),
(592.5,150,o),
(592.5,0,c),
(600,0,l),
(600,875,l),
(600,900,l),
(300,900,l)
);
}
);
width = 600;
},
{
associatedMasterId = m01;
layerId = "45510E9A-48B7-4B14-8021-CF23C84B157D";
name = Short;
partSelection = {
staffLength = 1;
staffWidth = 1;
staffThickness = 1;
staffAngle = 2;
};
shapes = (
{
closed = 1;
nodes = (
(300,893.889,l),
(400,892.222,ls),
(500,890.5,o),
(550.5,867.5,o),
(575,825,cs),
(589.5,800,o),
(592.5,791,o),
(592.5,750,c),
(600,750,l),
(600,868.5,l),
(600,900,l),
(300,900,l)
);
}
);
width = 600;
},
{
associatedMasterId = m01;
layerId = "EFD017F6-EE07-4665-BD36-169C64CDCDD7";
name = Overshoot;
partSelection = {
staffLength = 2;
staffWidth = 2;
staffThickness = 1;
staffAngle = 2;
};
shapes = (
{
closed = 1;
nodes = (
(150,894,l),
(400,892,ls),
(550,891,o),
(578,810,o),
(580,750,cs),
(584,630,o),
(592.5,150,o),
(592.5,0,c),
(600,0,l),
(600,861.5,l),
(600,900,l),
(150,900,l)
);
}
);
width = 600;
},
{
associatedMasterId = m01;
layerId = "84F8DF0D-FB19-42AA-8266-BFDC47CA1A34";
name = Thickened;
partSelection = {
staffLength = 2;
staffWidth = 1;
staffThickness = 2;
staffAngle = 2;
};
shapes = (
{
closed = 1;
nodes = (
(300,894,l),
(400,892.5,ls),
(550,890.5,o),
(558,810,o),
(560,750,cs),
(564,630,o),
(565,450,o),
(565,300,c),
(600,300,l),
(600,843,l),
(600,900,l),
(300,900,l)
);
}
);
width = 600;
},
{
associatedMasterId = m01;
layerId = "2B46FD26-CF6F-4FF8-81EA-D3F83A1609B6";
name = Angle;
partSelection = {
staffLength = 2;
staffWidth = 1;
staffThickness = 1;
staffAngle = 1;
};
shapes = (
{
closed = 1;
nodes = (
(300,893.889,l),
(400,894,ls),
(550.5,894,o),
(580,658,o),
(580,607.5,cs),
(580,487.5,o),
(592.5,150,o),
(592.5,0,c),
(600,0,l),
(600,750,l),
(470,900,l),
(300,900,l)
);
}
);
width = 600;
}
);
partsSettings = (
{
bottomValue = 0;
name = staffLength;
topValue = 100;
},
{
bottomValue = 0;
name = staffWidth;
topValue = 100;
},
{
bottomValue = 0;
name = staffThickness;
topValue = 100;
},
{
bottomValue = -100;
name = staffAngle;
topValue = 0;
}
);
},
{
export = 0;
glyphname = _part.stroke;
lastChange = "2023-07-20 00:43:41 +0000";
layers = (
{
layerId = m01;
partSelection = {
Diagonal = 1;
Rotate = 2;
};
shapes = (
{
closed = 1;
nodes = (
(300,290,l),
(510,290,o),
(562,268,o),
(580,210,cs),
(587,187,o),
(594,135,o),
(596,76,c),
(600,76,l),
(600,300,l),
(300,300,l)
);
}
);
width = 600;
},
{
associatedMasterId = m01;
layerId = "BCFDD148-B77D-406A-87A2-E55CD788FCE5";
name = "R Var";
partSelection = {
Diagonal = 2;
Rotate = 2;
};
shapes = (
{
closed = 1;
nodes = (
(250,595,l),
(531,432,o),
(557,393,o),
(575,335,cs),
(582,312,o),
(594,144,o),
(596,85,c),
(600,85,l),
(600,400,l),
(251,600,l)
);
}
);
width = 600;
},
{
associatedMasterId = m01;
layerId = "2834D512-1EE6-4049-A1BD-C0EA1FC05F32";
name = "B Var";
partSelection = {
Diagonal = 2;
Rotate = 1;
};
shapes = (
{
closed = 1;
nodes = (
(250,595,l),
(531,432,o),
(532,412,o),
(550,354,cs),
(561.5,315.5,o),
(480.5,59,o),
(461,0,c),
(465,0,l),
(600,400,l),
(251,600,l)
);
}
);
width = 600;
},
{
associatedMasterId = m01;
layerId = "CF8D0534-06A1-4E55-BF35-BA610B411878";
name = "G Var";
partSelection = {
Diagonal = 1;
Rotate = 1;
};
shapes = (
{
closed = 1;
nodes = (
(300,290,l),
(510,290,o),
(537,268,o),
(555,210,cs),
(562,187,o),
(559,135,o),
(546,76,c),
(550,76,l),
(600,300,l),
(300,300,l)
);
}
);
width = 600;
}
);
partsSettings = (
{
bottomValue = -100;
name = Diagonal;
topValue = 0;
},
{
bottomValue = -100;
name = Rotate;
topValue = 0;
}
);
},
{
export = 0;
glyphname = _part.stem.001;
lastChange = "2023-07-21 04:50:12 +0000";
layers = (
{
hints = (
{
name = _corner.leftSerif;
origin = (0,3);
type = Corner;
},
{
name = _corner.rightSerif;
options = 1;
origin = (0,0);
type = Corner;
}
);
layerId = m01;
partSelection = {
stemLength = 2;
serifLength = 1;
stemWidth = 1;
stemAngle = 2;
};
shapes = (
{
closed = 1;
nodes = (
(20,0,l),
(600,900,l),
(594,900,l),
(0,0,l)
);
}
);
width = 600;
},
{
associatedMasterId = m01;
hints = (
{
name = _corner.leftSerif;
origin = (0,3);
type = Corner;
},
{
name = _corner.rightSerif;
options = 1;
origin = (0,0);
type = Corner;
}
);
layerId = "FD32427F-FC09-4938-9257-7B45657633AB";
name = Upright;
partSelection = {
stemLength = 2;
serifLength = 1;
stemWidth = 1;
stemAngle = 1;
};
shapes = (
{
closed = 1;
nodes = (
(20,0,l),
(150,900,l),
(144,900,l),
(0,0,l)
);
}
);
width = 600;
},
{
associatedMasterId = m01;
hints = (
{
name = _corner.leftSerif;
origin = (0,3);
type = Corner;
},
{
name = _corner.rightSerif;
options = 1;
origin = (0,0);
scale = (5,1);
type = Corner;
}
);
layerId = "E9044493-4DE1-40B2-A24E-6433A3027068";
name = Sharpened;
partSelection = {
stemLength = 2;
serifLength = 2;
stemWidth = 1;
stemAngle = 2;
};
shapes = (
{
closed = 1;
nodes = (
(20,0,l),
(600,900,l),
(594,900,l),
(0,0,l)
);
}
);
width = 600;
},
{
associatedMasterId = m01;
hints = (
{
name = _corner.leftSerif;
origin = (0,3);
type = Corner;
},
{
name = _corner.rightSerif;
options = 1;
origin = (0,0);
type = Corner;
}
);
layerId = "AF2E0F19-1B60-4EE5-A479-968FD8456FCB";
name = "Upright Short";
partSelection = {
stemLength = 1;
serifLength = 1;
stemWidth = 1;
stemAngle = 1;
};
shapes = (
{
closed = 1;
nodes = (
(20,0,l),
(150,600,l),
(144,600,l),
(0,0,l)
);
}
);
width = 600;
},
{
associatedMasterId = m01;
hints = (
{
name = _corner.leftSerif;
origin = (0,3);
type = Corner;
},
{
name = _corner.rightSerif;
options = 1;
origin = (0,0);
scale = (3,0.6);
type = Corner;
}
);
layerId = "92E17FEF-DCC5-44C6-9995-F39E5DB9001A";
name = "Short Sharpened";
partSelection = {
stemLength = 1;
serifLength = 2;
stemWidth = 1;
stemAngle = 2;
};
shapes = (
{
closed = 1;
nodes = (
(20,0,l),
(400,600,l),
(394,600,l),
(0,0,l)
);
}
);
width = 600;
},
{
associatedMasterId = m01;
hints = (
{
name = _corner.leftSerif;
origin = (0,3);
type = Corner;
},
{
name = _corner.rightSerif;
options = 1;
origin = (0,0);
scale = (3,0.6);
type = Corner;
}
);
layerId = "1B631D66-179C-4168-BF60-A02E33B6DEAC";
name = "Upright Short Sharpened";
partSelection = {
stemLength = 1;
serifLength = 2;
stemWidth = 1;
stemAngle = 1;
};
shapes = (
{
closed = 1;
nodes = (
(20,0,l),
(150,600,l),
(144,600,l),
(0,0,l)
);
}
);
width = 600;
}
);
partsSettings = (
{
bottomValue = 0;
name = stemLength;
topValue = 100;
},
{
bottomValue = 0;
name = serifLength;
topValue = 400;
},
{
bottomValue = 0;
name = stemWidth;
topValue = 100;
},
{
bottomValue = -100;
name = stemAngle;
topValue = 0;
}
);
},
{
export = 0;
glyphname = _part.stem.002;
lastChange = "2023-07-21 22:03:59 +0000";
layers = (
{
hints = (
{
name = _corner.leftSerif;
origin = (0,3);
type = Corner;
},
{
name = _corner.rightSerif;
options = 1;
origin = (0,0);
type = Corner;
},
{
name = _corner.rightSerif;
options = 1;
origin = (0,2);
scale = (1,0.75);
type = Corner;
}
);
layerId = m01;
partSelection = {
stemLength = 2;
serifLength = 1;
stemWidth = 1;
stemAngle = 2;
};
shapes = (
{
closed = 1;
nodes = (
(20,0,l),
(300,900,l),
(294,900,l),
(0,0,l)
);
}
);
width = 600;
},
{
associatedMasterId = m01;
hints = (
{
name = _corner.leftSerif;
origin = (0,3);
type = Corner;
},
{
name = _corner.rightSerif;
options = 1;
origin = (0,0);
type = Corner;
},
{
name = _corner.rightSerif;
options = 1;
origin = (0,2);
scale = (1,0.75);
type = Corner;
}
);
layerId = "FD32427F-FC09-4938-9257-7B45657633AB";
name = Upright;
partSelection = {
stemLength = 2;
serifLength = 1;
stemWidth = 1;
stemAngle = 1;
};
shapes = (
{
closed = 1;
nodes = (
(20,0,l),
(150,900,l),
(144,900,l),
(0,0,l)
);
}
);
width = 600;
},
{
associatedMasterId = m01;
hints = (
{
name = _corner.leftSerif;
origin = (0,3);
type = Corner;
},
{
name = _corner.rightSerif;
options = 1;
origin = (0,0);
scale = (5.5,1);
type = Corner;
},
{
name = _corner.rightSerif;
options = 1;
origin = (0,2);
scale = (1,0.75);
type = Corner;
}
);
layerId = "E9044493-4DE1-40B2-A24E-6433A3027068";
name = Sharpened;
partSelection = {
stemLength = 2;
serifLength = 2;
stemWidth = 1;
stemAngle = 2;
};
shapes = (
{
closed = 1;
nodes = (
(20,0,l),
(300,900,l),
(294,900,l),
(0,0,l)
);
}
);
width = 600;
},
{
associatedMasterId = m01;
hints = (
{
name = _corner.leftSerif;
origin = (0,3);
type = Corner;
},
{
name = _corner.rightSerif;
options = 1;
origin = (0,0);
type = Corner;
},
{
name = _corner.rightSerif;
options = 1;
origin = (0,2);
scale = (0.5,0.5);
type = Corner;
}
);
layerId = "AF2E0F19-1B60-4EE5-A479-968FD8456FCB";
name = "Upright Short";
partSelection = {
stemLength = 1;
serifLength = 1;
stemWidth = 1;
stemAngle = 1;
};
shapes = (
{
closed = 1;
nodes = (
(20,0,l),
(150,600,l),
(144,600,l),
(0,0,l)
);
}
);
width = 600;
},
{
associatedMasterId = m01;
hints = (
{
name = _corner.leftSerif;
origin = (0,3);
type = Corner;
},
{
name = _corner.rightSerif;
options = 1;
origin = (0,0);
scale = (3,0.6);
type = Corner;
},
{
name = _corner.rightSerif;
options = 1;
origin = (0,2);
scale = (0.5,0.5);
type = Corner;
}
);
layerId = "92E17FEF-DCC5-44C6-9995-F39E5DB9001A";
name = "Short Sharpened";
partSelection = {
stemLength = 1;
serifLength = 2;
stemWidth = 1;
stemAngle = 2;
};
shapes = (
{
closed = 1;
nodes = (
(20,0,l),
(250,600,l),
(244,600,l),
(0,0,l)
);
}
);
width = 600;
},
{
associatedMasterId = m01;
hints = (
{
name = _corner.leftSerif;
origin = (0,3);
type = Corner;
},
{
name = _corner.rightSerif;
options = 1;
origin = (0,0);
scale = (3,0.6);
type = Corner;
},
{
name = _corner.rightSerif;
options = 1;
origin = (0,2);
scale = (0.5,0.5);
type = Corner;
}
);
layerId = "1B631D66-179C-4168-BF60-A02E33B6DEAC";
name = "Upright Short Sharpened";
partSelection = {
stemLength = 1;
serifLength = 2;
stemWidth = 1;
stemAngle = 1;
};
shapes = (
{
closed = 1;
nodes = (
(20,0,l),
(150,600,l),
(144,600,l),
(0,0,l)
);
}
);
width = 600;
}
);
partsSettings = (
{
bottomValue = 0;
name = stemLength;
topValue = 100;
},
{
bottomValue = 0;
name = serifLength;
topValue = 100;
},
{
bottomValue = 0;
name = stemWidth;
topValue = 100;
},
{
bottomValue = -100;
name = stemAngle;
topValue = 0;
}
);
},
